<svg id="Layer_1" data-name="Layer 1" xmlns="http://www.w3.org/2000/svg" viewBox="0 0 226.2969 70.7828">
  <title>msg-logo</title>
  <path d="M3.875,47.3853A11.7832,11.7832,0,1,1,15.6582,59.1685,11.7827,11.7827,0,0,1,3.875,47.3853" transform="translate(-3.875 -4.6728)" style="fill: #a20134"/>
  <path d="M35.0342,4.6738v54.149H44.915v-45.91H67.5488v45.91h9.9121v-45.91H92.5146c5.0831,0,8.6729,3.05,8.6729,9.667V58.8228h9.89V19.8408c0-7.374-3.8037-15.167-13.5839-15.167H35.0342" transform="translate(-3.875 -4.6728)" style="fill: #9c9ea0"/>
  <path d="M130.8711,4.6738c-10.6729,0-13.9082,7.0894-13.9082,15.0274,0,8.48,3.5244,15.6225,13.2236,15.6225H153.707c7.2071,0,7.2071,5.54,7.2071,8.06,0,2.35,0,7.1836-7.0264,7.1836h-36.001v8.2559h40.1377c10.0108,0,12.877-5.8809,12.877-15.3653,0-11.3017-3.69-16.3667-12.2442-16.3667H133.26c-6.4073,0-6.4073-4.33-6.4073-7.2168,0-2.251.6348-6.9609,7.5049-6.9609h34.6963V4.6738H130.8711" transform="translate(-3.875 -4.6728)" style="fill: #9c9ea0"/>
  <path d="M230.1719,4.6729V63.645c0,7.7207-2.9737,11.8106-12.16,11.8106H183.9443v-8.67h30.91c4.6826,0,5.4668-1.7832,5.4717-5.8691,0.0068-.4385-0.0049-2.0937-0.0049-2.0937H196.6084c-9.3516,0-12.3965-1.4942-14.2354-2.8077-2.7314-2.2949-5.4023-4.9863-5.4023-14.6049V21.8608c0.0518-9.08,2.4678-11.75,5.1045-13.853,2.417-1.9277,5.6963-3.335,14.51-3.335h33.5869m-9.8506,8.2393s-19.7022.0142-20.2969,0c-10.1465-.2432-12.6006,2.124-12.9424,8.7739-0.0381.7442,0.0284,2.4649,0,9.6651-0.0332,8.4887-.0068,11.4121,0,11.7412,0.1612,7.9365,6.376,7.5107,12.5039,7.4746h20.7354V12.9121Z" transform="translate(-3.875 -4.6728)" style="fill: #9c9ea0"/>
</svg>
