<?xml version="1.0" encoding="utf-8"?>
<!-- Generator: Adobe Illustrator 27.8.0, SVG Export Plug-In . SVG Version: 6.00 Build 0)  -->
<svg version="1.1" id="Layer_1" xmlns="http://www.w3.org/2000/svg" xmlns:xlink="http://www.w3.org/1999/xlink" x="0px" y="0px"
	 viewBox="0 0 226.3 70.8" style="enable-background:new 0 0 226.3 70.8;" xml:space="preserve">
<style type="text/css">
	.st0{fill:#FFFFFF;}
</style>
<path class="st0" d="M0,42.7c0-6.5,5.3-11.8,11.8-11.8s11.8,5.3,11.8,11.8c0,6.5-5.3,11.8-11.8,11.8l0,0C5.3,54.5,0,49.2,0,42.7
	C0,42.7,0,42.7,0,42.7"/>
<path class="st0" d="M31.2,0v54.1H41V8.2h22.6v45.9h9.9V8.2h15.1c5.1,0,8.7,3.1,8.7,9.7v36.2h9.9v-39c0-7.4-3.8-15.2-13.6-15.2
	L31.2,0"/>
<path class="st0" d="M127,0c-10.7,0-13.9,7.1-13.9,15c0,8.5,3.5,15.6,13.2,15.6h23.5c7.2,0,7.2,5.5,7.2,8.1c0,2.3,0,7.2-7,7.2h-36
	v8.3h40.1c10,0,12.9-5.9,12.9-15.4c0-11.3-3.7-16.4-12.2-16.4h-25.4c-6.4,0-6.4-4.3-6.4-7.2c0-2.3,0.6-7,7.5-7h34.7V0H127"/>
<path class="st0" d="M226.3,0v59c0,7.7-3,11.8-12.2,11.8h-34.1v-8.7H211c4.7,0,5.5-1.8,5.5-5.9c0-0.4,0-2.1,0-2.1h-23.7
	c-9.4,0-12.4-1.5-14.2-2.8c-2.7-2.3-5.4-5-5.4-14.6V17.2c0.1-9.1,2.5-11.8,5.1-13.9c2.4-1.9,5.7-3.3,14.5-3.3L226.3,0 M216.4,8.2
	c0,0-19.7,0-20.3,0C186,8,183.5,10.4,183.2,17c0,0.7,0,2.5,0,9.7c0,8.5,0,11.4,0,11.7c0.2,7.9,6.4,7.5,12.5,7.5h20.7V8.2z"/>
</svg>
